<svg width="1507" height="505" viewBox="0 0 1507 505" fill="none" xmlns="http://www.w3.org/2000/svg">
<g clip-path="url(#clip0_52_8)">
<path d="M73.6642 267.534C59.0752 267.534 46.2328 264.349 35.1369 257.979C24.041 251.404 15.4108 242.363 9.24651 230.855C3.08214 219.144 0 205.685 0 190.479C0 172.191 4.52054 156.163 13.5617 142.398C22.8081 128.63 35.856 118.047 52.7053 110.65C69.76 103.254 89.6916 99.555 112.5 99.555C122.979 99.555 131.506 100.274 138.082 101.712V95.24C138.082 79.6231 135.205 68.0134 129.452 60.4108C123.698 52.6025 114.965 48.6984 103.253 48.6984C84.349 48.6984 72.2258 58.6641 66.8834 78.5955C65.2395 84.3491 61.8492 86.8149 56.7122 85.9928L14.7945 78.5955C11.7122 77.9792 9.55475 76.6435 8.32187 74.5888C7.29452 72.5339 7.19174 69.7601 8.01382 66.2669C13.3563 45.308 24.6577 29.0751 41.9178 17.5684C59.3836 5.85614 81.2671 0 107.568 0C138.801 0 162.534 8.42463 178.767 25.2739C195.205 42.1232 203.424 66.6778 203.424 98.9389V253.973C203.424 256.233 202.603 258.183 200.959 259.827C199.52 261.266 197.67 261.985 195.41 261.985H155.342C150.411 261.985 147.329 259.313 146.096 253.973L139.931 225H137.465C131.918 238.561 123.596 249.04 112.5 256.437C101.609 263.835 88.6642 267.534 73.6642 267.534ZM67.1915 183.081C67.1915 193.973 69.9655 202.705 75.5134 209.28C81.267 215.65 88.9723 218.835 98.6298 218.835C111.37 218.835 121.13 213.183 127.911 201.882C134.691 190.376 138.082 173.937 138.082 152.569V136.232C132.328 135.205 126.883 134.691 121.746 134.691C104.897 134.691 91.5408 139.108 81.6778 147.945C72.0203 156.575 67.1915 168.288 67.1915 183.081ZM241.642 13.5615C241.642 11.3012 242.363 9.45201 243.8 8.01362C245.444 6.36972 247.396 5.54787 249.656 5.54787H290.341C292.601 5.54787 294.452 6.26695 295.889 7.70534C297.534 9.14372 298.56 11.0957 298.971 13.5615L305.137 43.7669H307.601C313.151 29.5889 321.06 18.8012 331.336 11.404C341.814 3.8012 354.143 0 368.32 0C383.527 0 396.574 4.00671 407.464 12.0205C418.56 20.0341 427.088 31.4383 433.047 46.2326H435.513C444.554 30.6162 454.726 19.0068 466.027 11.404C477.328 3.8012 489.964 0 503.937 0C519.143 0 532.293 4.10947 543.389 12.3286C554.691 20.5479 563.321 32.2601 569.279 47.4655C575.238 62.671 578.218 80.6505 578.218 101.403V253.973C578.218 256.233 577.395 258.183 575.752 259.827C574.313 261.266 572.464 261.985 570.204 261.985H520.889C518.629 261.985 516.677 261.266 515.033 259.827C513.594 258.183 512.876 256.233 512.876 253.973V106.335C512.876 91.3346 510 79.8284 504.246 71.8148C498.492 63.8012 490.171 59.7943 479.279 59.7943C467.362 59.7943 458.218 64.5203 451.848 73.9723C445.684 83.4243 442.602 97.0885 442.602 114.965V253.973C442.602 256.233 441.779 258.183 440.135 259.827C438.698 261.266 436.848 261.985 434.588 261.985H385.273C383.013 261.985 381.06 261.266 379.416 259.827C377.978 258.183 377.259 256.233 377.259 253.973V106.335C377.259 91.3346 374.383 79.8284 368.629 71.8148C362.875 63.8012 354.554 59.7943 343.664 59.7943C331.745 59.7943 322.601 64.5203 316.231 73.9723C310.068 83.4243 306.985 97.0885 306.985 114.965V253.973C306.985 256.233 306.164 258.183 304.521 259.827C303.082 261.266 301.231 261.985 298.971 261.985H249.656C247.396 261.985 245.444 261.266 243.8 259.827C242.363 258.183 241.642 256.233 241.642 253.973V13.5615ZM610.272 190.479C610.272 172.191 614.793 156.163 623.835 142.398C633.081 128.63 646.128 118.047 662.978 110.65C680.032 103.254 699.965 99.555 722.772 99.555C733.252 99.555 741.78 100.274 748.355 101.712V95.24C748.355 79.6231 745.477 68.0134 739.725 60.4108C733.971 52.6025 725.238 48.6984 713.526 48.6984C694.622 48.6984 682.498 58.6641 677.156 78.5955C675.512 84.3491 672.122 86.8149 666.984 85.9928L625.067 78.5955C621.984 77.9792 619.827 76.6435 618.594 74.5888C617.567 72.5339 617.464 69.7601 618.285 66.2669C623.628 45.308 634.929 29.0751 652.191 17.5684C669.656 5.85614 691.539 0 717.841 0C749.073 0 772.805 8.42463 789.04 25.2739C805.477 42.1232 813.697 66.6778 813.697 98.9389V253.973C813.697 256.233 812.874 258.183 811.231 259.827C809.792 261.266 807.943 261.985 805.683 261.985H765.614C760.683 261.985 757.601 259.313 756.368 253.973L750.203 225H747.738C742.189 238.561 733.868 249.04 722.772 256.437C711.882 263.835 698.937 267.534 683.937 267.534C668.937 267.534 656.506 264.349 645.409 257.979C634.313 251.404 625.683 242.363 619.52 230.855C613.354 219.144 610.272 205.685 610.272 190.479ZM677.465 183.081C677.465 193.973 680.238 202.705 685.786 209.28C691.539 215.65 699.244 218.835 708.902 218.835C721.642 218.835 731.402 213.183 738.183 201.882C744.963 190.376 748.355 173.937 748.355 152.569V136.232C742.601 135.205 737.156 134.691 732.018 134.691C715.169 134.691 701.813 139.108 691.951 147.945C682.293 156.575 677.465 168.288 677.465 183.081ZM846.985 216.677C846.985 212.158 848.217 208.252 850.684 204.965L956.093 57.3285H857.463C855.203 57.3285 853.251 56.6094 851.607 55.171C850.17 53.5271 849.449 51.5752 849.449 49.3149V13.5615C849.449 11.3012 850.17 9.45201 851.607 8.01362C853.251 6.36972 855.203 5.54787 857.463 5.54787H1019.59C1021.85 5.54787 1023.7 6.36972 1025.13 8.01362C1026.78 9.45201 1027.6 11.3012 1027.6 13.5615V50.8559C1027.6 55.3765 1026.37 59.2805 1023.9 62.5683L928.353 193.868C934.107 192.843 939.963 192.329 945.922 192.329C960.717 192.329 974.279 193.664 986.607 196.335C999.141 198.801 1012.09 202.91 1025.44 208.664C1030.17 210.719 1032.53 214.211 1032.53 219.144V254.589C1032.53 257.876 1031.51 260.136 1029.45 261.369C1027.39 262.396 1024.83 262.294 1021.74 261.061C1006.33 255.307 992.668 251.301 980.751 249.04C969.038 246.575 956.196 245.341 942.223 245.341C928.251 245.341 914.894 246.575 901.538 249.04C888.388 251.506 873.8 255.512 857.772 261.061C854.69 262.089 852.121 262.089 850.066 261.061C848.012 259.827 846.985 257.67 846.985 254.589V216.677ZM1046.09 133.766C1046.09 108.699 1050.92 85.9928 1060.58 65.6504C1070.24 45.1025 1083.49 29.0751 1100.34 17.5684C1117.4 5.85614 1136.3 0 1157.05 0C1177.8 0 1196.91 5.85614 1213.76 17.5684C1230.82 29.0751 1244.17 45.1025 1253.83 65.6504C1263.69 85.9928 1268.63 108.699 1268.63 133.766C1268.63 158.835 1263.69 181.644 1253.83 202.191C1244.17 222.534 1230.82 238.561 1213.76 250.274C1196.91 261.78 1178.01 267.534 1157.05 267.534C1136.09 267.534 1117.4 261.78 1100.34 250.274C1083.49 238.561 1070.24 222.534 1060.58 202.191C1050.92 181.644 1046.09 158.835 1046.09 133.766ZM1113.9 133.766C1113.9 159.862 1117.6 180 1125 194.177C1132.4 208.15 1143.08 215.136 1157.05 215.136C1171.03 215.136 1181.81 208.15 1189.41 194.177C1197.02 180 1200.82 159.862 1200.82 133.766C1200.82 107.671 1197.02 87.6367 1189.41 73.6642C1181.81 59.486 1171.03 52.397 1157.05 52.397C1143.08 52.397 1132.4 59.486 1125 73.6642C1117.6 87.6367 1113.9 107.671 1113.9 133.766ZM1301.91 13.5615C1301.91 11.3012 1302.63 9.45201 1304.07 8.01362C1305.72 6.36972 1307.67 5.54787 1309.93 5.54787H1350.61C1352.87 5.54787 1354.72 6.26695 1356.16 7.70534C1357.81 9.14372 1358.83 11.0957 1359.24 13.5615L1365.41 43.7669H1367.87C1373.42 29.7944 1381.54 19.0068 1392.22 11.404C1403.11 3.8012 1415.85 0 1430.44 0C1446.06 0 1459.52 4.10947 1470.82 12.3286C1482.33 20.5479 1491.16 32.2601 1497.33 47.4655C1503.49 62.671 1506.57 80.6505 1506.57 101.403V253.973C1506.57 256.233 1505.75 258.183 1504.1 259.827C1502.67 261.266 1500.82 261.985 1498.56 261.985H1449.24C1446.98 261.985 1445.03 261.266 1443.39 259.827C1441.95 258.183 1441.23 256.233 1441.23 253.973V106.335C1441.23 91.3346 1438.15 79.8284 1431.98 71.8148C1425.82 63.8012 1417.08 59.7943 1405.78 59.7943C1393.25 59.7943 1383.7 64.5203 1377.12 73.9723C1370.54 83.4243 1367.26 97.0885 1367.26 114.965V253.973C1367.26 256.233 1366.44 258.183 1364.79 259.827C1363.35 261.266 1361.5 261.985 1359.24 261.985H1309.93C1307.67 261.985 1305.72 261.266 1304.07 259.827C1302.63 258.183 1301.91 256.233 1301.91 253.973V13.5615Z" fill="white"/>
<path d="M171.376 297.422C167.472 300.505 166.65 305.64 168.91 312.833C170.965 319.203 175.794 327.113 183.396 336.566C214.012 374.375 250.485 405.812 292.814 430.881C335.142 455.95 380.452 474.442 428.739 486.359C477.231 498.483 526.751 504.545 577.299 504.545C642.025 504.545 703.669 495.094 762.23 476.188C820.792 457.489 869.695 431.188 908.943 397.284C922.709 385.162 929.593 375.505 929.593 368.312C929.593 365.641 928.463 362.969 926.203 360.298C923.121 357.217 919.422 356.19 915.107 357.217C910.792 358.243 904.731 360.812 896.922 364.922C859.319 384.648 813.498 400.367 759.457 412.08C705.622 423.997 649.423 429.956 590.862 429.956C518.328 429.956 448.259 420.094 380.656 400.367C313.054 380.641 253.156 349.82 200.965 307.902C193.362 301.944 187.197 298.14 182.472 296.497C177.951 294.853 174.253 295.162 171.376 297.422Z" fill="white"/>
<path d="M856.225 312.851C851.91 316.961 850.78 321.276 852.835 325.798C854.274 329.085 857.048 330.933 861.158 331.345C865.266 331.961 871.123 331.55 878.725 330.113C891.054 327.441 903.897 325.591 917.253 324.563C930.609 323.743 942.219 323.947 952.082 325.18C961.946 326.618 968.109 329.085 970.576 332.577C974.275 338.126 972.938 349.837 966.568 367.715C960.405 385.591 951.979 402.953 941.294 419.804C937.184 426.583 934.719 431.926 933.897 435.831C933.076 439.735 934.103 443.022 936.979 445.694C938.828 447.542 940.883 448.467 943.143 448.467C949.103 448.467 957.733 443.227 969.035 432.749C989.377 415.077 1003.66 394.119 1011.88 369.873C1016.4 357.337 1019.17 344.187 1020.2 330.42C1021.23 316.654 1019.68 306.79 1015.57 300.831C1011.67 295.077 1003.04 290.351 989.684 286.654C976.535 282.955 963.281 281.105 949.924 281.105C923.828 281.105 899.068 287.27 875.644 299.599C867.015 304.325 860.542 308.742 856.225 312.851Z" fill="white"/>
</g>
<defs>
<clipPath id="clip0_52_8">
<rect width="1506.57" height="504.545" fill="white"/>
</clipPath>
</defs>
</svg>
