<svg width="412" height="85" viewBox="0 0 412 85" fill="none" xmlns="http://www.w3.org/2000/svg">
<g clip-path="url(#clip0_52_60)">
<path d="M141.1 44.2999V81.4C141.1 82.6 140.1 83.5999 138.9 83.5999H122.9C121.7 83.5999 120.7 82.6 120.7 81.4V22.7999C120.7 21.5999 121.7 20.6 122.9 20.6H138.9C140.1 20.6 141.1 21.5999 141.1 22.7999V27.4C145.1 22.4 150.8 19.2 158.7 19.2C166.1 19.2 172.6 22.2 176.5 27.9C181.3 22.2 188.1 19.2 196.4 19.2C210.5 19.2 220.2 27.5 220.2 43.4V81.4C220.2 82.6 219.2 83.5999 218 83.5999H202C200.8 83.5999 199.8 82.6 199.8 81.4V47.7C199.8 40.8 195.9 37.4 190.6 37.4C186.2 37.4 182.7 40.1999 180.6 44.2999V81.4C180.6 82.6 179.6 83.5999 178.4 83.5999H162.4C161.2 83.5999 160.2 82.6 160.2 81.4V47.7C160.2 40.8 156.3 37.4 151 37.4C146.5 37.4 143.1 40.1999 141.1 44.2999Z" fill="white"/>
<path d="M247 84.8999C235.2 84.8999 225.2 77.1 225.2 65C225.2 53.9 232.5 48.8 246.1 45.2L263.5 40.7C263 36.5 259.7 34.5 254.4 34.5C249.7 34.5 246.3 36.3 244.8 39.9C244.4 40.9 243.3 41.5 242.3 41.2L228.5 37.9C227.2 37.6 226.5 36.2 226.9 35C230.9 24.3 241.8 18.7 255.1 18.7C273 18.7 283.3 27.1 283.3 42V81.4C283.3 82.6 282.3 83.5999 281.1 83.5999H266C264.8 83.5999 263.8 82.7 263.8 81.5L263.7 78.1999L263.6 78.3C258.4 82.7 253.4 84.8999 247 84.8999ZM252.1 69.0999C254.7 69.0999 256.8 68.2999 259.8 66.5999L263.3 64.5L263.4 54.2999L254.3 56.7999C248.1 58.5999 245.4 60.0999 245.4 63.5999C245.4 67.4999 248.8 69.0999 252.1 69.0999Z" fill="white"/>
<path d="M315.9 53.9L309.7 59.6V81.5C309.7 82.7 308.7 83.7 307.5 83.7H291.8C290.6 83.7 289.6 82.7 289.6 81.5V2.2C289.6 1 290.6 0 291.8 0H307.5C308.7 0 309.7 1 309.7 2.2V38L328 21.2C328.4 20.8 328.9 20.6 329.5 20.6H348.8C350.8 20.6 351.7 23.1 350.3 24.4L331.5 41.5L352.9 80.3C353.7 81.8 352.6 83.5 351 83.5H332.7C331.9 83.5 331.1 83 330.8 82.3L315.9 53.9Z" fill="white"/>
<path d="M382.3 85C364.8 85 348.8 74 348.8 51.9C348.8 31 364.2 18.9 381 18.9C397.8 18.9 411.2 31.1 411.7 50.4C411.8 52.4 411.8 53.9 411.8 54.9C411.8 56.1 410.8 57.1 409.6 57.1H369C369.6 64.7 375.7 69.4 383.4 69.4C388.9 69.4 393.3 67.1 396.5 63C397.2 62.1 398.5 61.9 399.4 62.5L409.6 69.3C410.6 70 410.9 71.4 410.2 72.4C404.7 80.4 395.7 85 382.3 85ZM369.4 44.7H391.4C391.3 37.5 386 34.4 380.4 34.4C375.3 34.4 370 37.4 369.4 44.7Z" fill="white"/>
<mask id="mask0_52_60" style="mask-type:luminance" maskUnits="userSpaceOnUse" x="70" y="20" width="21" height="64">
<path d="M72.8001 20.7H88.6001C89.8001 20.7 90.8001 21.6999 90.8001 22.9V81.3C90.8001 82.5 89.8001 83.5 88.6001 83.5H72.8001C71.6001 83.5 70.6001 82.5 70.6001 81.3V22.9C70.6001 21.6999 71.6001 20.7 72.8001 20.7Z" fill="white"/>
</mask>
<g mask="url(#mask0_52_60)">
<path d="M50.3003 28.2L88.4003 14.1L111.2 75.9L73.1003 90L50.3003 28.2Z" fill="url(#paint0_linear_52_60)"/>
</g>
<mask id="mask1_52_60" style="mask-type:luminance" maskUnits="userSpaceOnUse" x="-1" y="20" width="46" height="64">
<path d="M26.4001 21.5L0.200136 73.5999C-0.299864 74.6999 0.100136 76 1.20014 76.5L15.3001 83.5999C16.4001 84.0999 17.7001 83.6999 18.2001 82.5999L44.4001 30.4C44.9001 29.3 44.5001 28 43.4001 27.5L29.3001 20.4C29.0001 20.2 28.7001 20.2 28.3001 20.2C27.6001 20.3 26.8001 20.7 26.4001 21.5Z" fill="white"/>
</mask>
<g mask="url(#mask1_52_60)">
<path d="M-23.6001 30.2999L37.8999 3.79993L68.2999 74.0999L6.7999 100.7L-23.6001 30.2999Z" fill="url(#paint1_linear_52_60)"/>
</g>
<mask id="mask2_52_60" style="mask-type:luminance" maskUnits="userSpaceOnUse" x="37" y="19" width="32" height="66">
<path d="M48.5 21.7L37.3 78.5C37.1 79.7 37.8 80.8 39 81.1L54.5 84.2C55.7 84.4 56.8 83.7 57.1 82.5L68.3 25.7C68.5 24.5 67.8 23.4 66.6 23.1L51.1 20C51 20 50.8 20 50.7 20C49.6 19.9 48.7 20.6 48.5 21.7Z" fill="white"/>
</mask>
<g mask="url(#mask2_52_60)">
<path d="M16.1001 27.6L64.8001 9.69995L89.4001 76.7L40.8001 94.6L16.1001 27.6Z" fill="url(#paint2_linear_52_60)"/>
</g>
</g>
<defs>
<linearGradient id="paint0_linear_52_60" x1="50.9606" y1="63.0667" x2="93.6322" y2="47.3328" gradientUnits="userSpaceOnUse">
<stop offset="1" stop-color="white"/>
</linearGradient>
<linearGradient id="paint1_linear_52_60" x1="13.7258" y1="55.9689" x2="59.5968" y2="36.1378" gradientUnits="userSpaceOnUse">
<stop offset="1" stop-color="white"/>
</linearGradient>
<linearGradient id="paint2_linear_52_60" x1="3.1187" y1="70.4642" x2="97.1501" y2="35.8487" gradientUnits="userSpaceOnUse">
<stop offset="1" stop-color="white"/>
</linearGradient>
<clipPath id="clip0_52_60">
<rect width="411.9" height="85" fill="white"/>
</clipPath>
</defs>
</svg>
