<svg width="640" height="640" viewBox="0 0 640 640" fill="none" xmlns="http://www.w3.org/2000/svg">
<path d="M256 144C256 117.5 277.5 96 304 96H336C362.5 96 384 117.5 384 144V496C384 522.5 362.5 544 336 544H304C277.5 544 256 522.5 256 496V144ZM64 336C64 309.5 85.5 288 112 288H144C170.5 288 192 309.5 192 336V496C192 522.5 170.5 544 144 544H112C85.5 544 64 522.5 64 496V336ZM496 160H528C554.5 160 576 181.5 576 208V496C576 522.5 554.5 544 528 544H496C469.5 544 448 522.5 448 496V208C448 181.5 469.5 160 496 160Z" fill="#4DA3FF"/>
</svg>
