<svg width="640" height="640" viewBox="0 0 640 640" fill="none" xmlns="http://www.w3.org/2000/svg">
<path d="M184 120C184 89.1 209.1 64 240 64H264C281.7 64 296 78.3 296 96V544C296 561.7 281.7 576 264 576H232C202.2 576 177.1 555.6 170 528C169.3 528 168.7 528 168 528C123.8 528 88 492.2 88 448C88 430 94 413.4 104 400C84.6 385.4 72 362.2 72 336C72 305.1 89.6 278.2 115.2 264.9C108.1 252.9 104 238.9 104 224C104 179.8 139.8 144 184 144V120ZM456 120V144C500.2 144 536 179.8 536 224C536 239 531.9 253 524.8 264.9C550.5 278.2 568 305 568 336C568 362.2 555.4 385.4 536 400C546 413.4 552 430 552 448C552 492.2 516.2 528 472 528C471.3 528 470.7 528 470 528C462.9 555.6 437.8 576 408 576H376C358.3 576 344 561.7 344 544V96C344 78.3 358.3 64 376 64H400C430.9 64 456 89.1 456 120Z" fill="#4DA3FF"/>
</svg>
