<svg width="640" height="640" viewBox="0 0 640 640" fill="none" xmlns="http://www.w3.org/2000/svg">
<path d="M280 170.6C298.9 161.6 312 142.3 312 120C312 89.1 286.9 64 256 64C225.1 64 200 89.1 200 120C200 142.3 213.1 161.6 232 170.6V269.4C229.2 270.7 226.5 272.3 224 274.1L143.9 228.3C145.5 207.5 135.3 186.7 116 175.5C89.1999 160 54.9999 169.2 39.4999 196C23.9999 222.8 33.1999 257 59.9999 272.5C61.2999 273.3 62.5999 274 63.9999 274.6V365.4C62.6999 366 61.2999 366.7 59.9999 367.5C33.1999 383 23.9999 417.2 39.4999 444C54.9999 470.8 89.1999 480 116 464.5C135.3 453.4 145.4 432.5 143.8 411.7L194.3 382.8C182.8 371.6 174.4 357.2 170.5 341.1L120 370.1C117.4 368.3 114.8 366.8 112 365.4V274.6C114.8 273.3 117.5 271.7 120 269.9L200.1 315.7C200 317.1 199.9 318.5 199.9 320C199.9 342.3 213 361.6 231.9 370.6V469.4C213 478.4 199.9 497.7 199.9 520C199.9 550.9 225 576 255.9 576C286.6 576 311.5 551.3 311.9 520.8C304.4 507.9 298.4 494 294.3 479.3C290.1 475.3 285.2 472 279.9 469.4V370.6C282.7 369.3 285.4 367.7 287.9 365.9L298.4 371.9C303.9 356.6 311.5 342.4 320.8 329.4L311.7 324.2C311.8 322.8 311.9 321.4 311.9 319.9C311.9 297.6 298.8 278.3 279.9 269.3V170.5L280 170.6ZM472.5 196C457 169.2 422.8 160 396 175.5C376.7 186.6 366.6 207.5 368.2 228.3L317.6 257.2C329.1 268.4 337.5 282.8 341.4 298.9L392 269.9C392.4 270.2 392.8 270.5 393.3 270.8C415 261.3 438.9 256 464.1 256C466.1 256 468.1 256 470 256.1C482.1 238.8 483.8 215.5 472.6 196H472.5ZM464 576C543.5 576 608 511.5 608 432C608 352.5 543.5 288 464 288C384.5 288 320 352.5 320 432C320 511.5 384.5 576 464 576ZM511.9 351C516.2 354.7 517.3 360.9 514.5 365.9L484.4 420H520C525.2 420 529.8 423.3 531.4 428.2C533 433.1 531.3 438.5 527.2 441.6L431.2 513.6C426.7 517 420.4 516.8 416.1 513C411.8 509.2 410.7 503.1 413.5 498.1L443.6 444H408C402.8 444 398.2 440.7 396.6 435.8C395 430.9 396.7 425.5 400.8 422.4L496.8 350.4C501.3 347 507.6 347.2 511.9 351Z" fill="#4DA3FF"/>
</svg>
