<svg width="1646" height="516" viewBox="0 0 1646 516" fill="none" xmlns="http://www.w3.org/2000/svg">
<path d="M0 160.689C62.884 160.689 125.768 160.689 190.558 160.689C188.112 162.319 185.884 163.296 183.147 164.308C170.467 169.031 159.748 176.367 153.912 189.02C150.098 198.22 149.551 207.904 153.11 217.294C156.917 226.128 161.649 234.598 166.13 243.103C169.666 249.818 173.061 256.6 176.417 263.406C179.544 269.716 182.81 275.948 186.099 282.174C189.959 289.485 193.766 296.822 197.543 304.175C197.911 304.89 198.278 305.604 198.656 306.34C204.274 317.274 209.799 328.253 215.286 339.253C215.606 339.893 215.925 340.534 216.255 341.193C219.475 347.646 222.692 354.099 225.897 360.559C232.357 373.569 238.946 386.469 245.979 399.183C248.723 404.15 251.285 409.193 253.771 414.294C254.571 415.925 255.373 417.555 256.176 419.184C256.72 420.298 256.72 420.298 257.275 421.434C258.282 423.374 259.402 425.169 260.585 427.004C262.017 429.919 262.017 429.919 261.382 432.013C260.001 434.879 258.584 437.718 257.121 440.544C256.823 441.12 256.526 441.696 256.219 442.29C255.253 444.158 254.283 446.025 253.313 447.891C252.64 449.191 251.967 450.49 251.293 451.79C244.048 465.767 236.699 479.686 229.265 493.564C228.829 494.377 228.829 494.377 228.385 495.207C224.662 502.154 220.913 509.087 217.126 516C214.347 513.439 212.584 511.046 210.885 507.68C210.182 506.304 210.182 506.304 209.465 504.901C208.969 503.918 208.474 502.934 207.964 501.92C206.894 499.826 205.821 497.732 204.747 495.639C203.94 494.066 203.94 494.066 203.117 492.461C200.891 488.172 198.566 483.941 196.226 479.713C191.41 470.978 186.833 462.13 182.281 453.255C178.308 445.514 174.266 437.824 170.059 430.206C166.227 423.265 162.593 416.252 159.079 409.145C156.212 403.352 153.237 397.623 150.211 391.912C146.986 385.824 143.803 379.715 140.628 373.601C137.154 366.913 133.669 360.232 130.15 353.569C126.431 346.528 122.761 339.462 119.099 332.392C115.058 324.592 111.002 316.801 106.898 309.034C104.887 305.226 102.888 301.412 100.905 297.59C95.9915 288.127 90.9975 278.722 85.853 269.383C82.3078 262.914 78.9143 256.372 75.5492 249.808C64.4577 228.192 53.2518 206.945 36.0888 189.468C34.8964 188.246 33.7318 186.997 32.5696 185.747C23.7348 176.449 13.1209 169.425 2.12216 162.942C1.42185 162.501 0.721534 162.059 0 161.604C0 161.302 0 161 0 160.689Z" fill="#F1F1F1"/>
<path d="M218.958 16C220.831 17.8725 221.538 19.2044 222.626 21.5875C223.179 22.7774 223.179 22.7774 223.743 23.9914C224.35 25.3052 224.35 25.3052 224.97 26.6456C229.255 35.7584 233.846 44.6704 238.598 53.5458C238.933 54.1725 239.269 54.7993 239.615 55.445C240.954 57.9444 242.293 60.4435 243.634 62.9419C246.544 68.3712 249.392 73.8319 252.226 79.3013C255.597 85.7978 259.053 92.2384 262.589 98.6465C267.847 108.183 272.805 117.866 277.763 127.56C281.823 135.494 285.915 143.396 290.245 151.188C296.472 162.407 302.244 173.864 308.067 185.296C313.079 195.135 318.171 204.928 323.332 214.689C325.508 218.811 327.659 222.946 329.811 227.081C333.482 234.122 337.172 241.153 340.88 248.175C343.606 253.347 346.296 258.537 348.98 263.731C367.944 301.894 367.944 301.894 391.193 337.429C391.858 338.297 392.523 339.166 393.208 340.061C404.274 354.042 417.177 364.755 432.393 373.936C433.942 374.872 435.473 375.836 437 376.806C437 377.108 437 377.41 437 377.722C343.581 378.175 343.581 378.175 248.275 378.637C248.275 378.033 248.275 377.429 248.275 376.806C249.341 376.438 249.341 376.438 250.429 376.062C265.25 370.688 279.059 363.501 286.108 348.664C288.556 342.664 289.7 337.58 289.787 331.076C289.814 330.449 289.841 329.823 289.868 329.178C289.991 318.77 285.326 309.136 280.798 299.997C280.318 299.015 279.839 298.032 279.345 297.02C274.794 287.751 270.027 278.598 265.199 269.471C263.019 265.344 260.856 261.208 258.696 257.071C258.256 256.231 257.817 255.39 257.365 254.524C252.713 245.607 248.12 236.66 243.525 227.715C239.331 219.554 235.126 211.399 230.868 203.271C225.918 193.821 221.039 184.335 216.163 174.847C211.596 165.96 207.016 157.079 202.41 148.212C201.91 147.246 201.41 146.281 200.894 145.287C198.262 140.21 195.624 135.137 192.973 130.07C191.541 127.329 190.114 124.585 188.688 121.841C187.997 120.514 187.304 119.188 186.609 117.864C185.635 116.009 184.669 114.15 183.704 112.29C183.148 111.224 182.592 110.159 182.018 109.061C181.511 107.966 181.003 106.871 180.48 105.744C180.174 105.096 179.867 104.448 179.551 103.78C177.983 99.9817 177.331 97.5013 178.927 93.622C179.618 92.2748 180.339 90.9428 181.085 89.6249C181.466 88.9007 181.847 88.1765 182.239 87.4304C183.479 85.0877 184.756 82.7677 186.034 80.446C186.897 78.8312 187.758 77.2151 188.616 75.5976C190.309 72.4151 192.015 69.2406 193.736 66.073C196.583 60.8264 199.327 55.5298 202.067 50.2262C204.654 45.2665 207.263 40.3181 209.886 35.3774C210.351 34.4981 210.817 33.6188 211.296 32.7129C212.175 31.0532 213.057 29.3954 213.943 27.7398C215.978 23.8917 217.745 20.2042 218.958 16Z" fill="#F1F1F1"/>
<path d="M79.7044 295.304C80.9645 299.083 79.6687 301.785 78.502 305.435C78.0701 306.855 77.6407 308.276 77.2136 309.699C77.0081 310.381 76.8027 311.063 76.5909 311.766C72.8172 324.454 72.3952 338.617 78.3302 350.65C86.6438 364.953 100.9 371.351 115.434 377.722C115.434 378.024 115.434 378.326 115.434 378.637C78.2477 378.637 41.0615 378.637 2.74841 378.637C5.34347 376.562 7.89297 374.526 10.5643 372.567C27.7192 359.91 43.7529 346.174 56.8008 329.187C57.5295 328.27 58.2581 327.352 59.0089 326.407C66.7269 316.641 73.9947 306.388 79.7044 295.304Z" fill="#F1F1F1"/>
<path d="M359.838 244.166C358.578 240.387 359.874 237.684 361.04 234.035C361.472 232.615 361.902 231.193 362.329 229.771C362.534 229.089 362.74 228.407 362.951 227.704C366.725 215.016 367.147 200.853 361.212 188.82C352.898 174.517 338.642 168.119 324.108 161.748C324.108 161.446 324.108 161.144 324.108 160.833C361.295 160.833 398.481 160.833 436.794 160.833C434.199 162.908 431.649 164.944 428.978 166.903C411.823 179.56 395.789 193.296 382.741 210.283C382.013 211.2 381.284 212.118 380.533 213.063C372.815 222.829 365.548 233.082 359.838 244.166Z" fill="#F1F1F1"/>
<path d="M623.85 314.95H543.825L530.075 354H497.35L565.825 162.6H602.125L670.6 354H637.6L623.85 314.95ZM615.05 289.375L583.975 200.55L552.625 289.375H615.05ZM738.323 325.95L781.223 202.475H814.498L756.748 354H719.348L661.873 202.475H695.423L738.323 325.95ZM956.445 274.525C956.445 280.208 956.079 285.342 955.345 289.925H839.57C840.487 302.025 844.979 311.742 853.045 319.075C861.112 326.408 871.012 330.075 882.745 330.075C899.612 330.075 911.529 323.017 918.495 308.9H952.32C947.737 322.833 939.395 334.292 927.295 343.275C915.379 352.075 900.529 356.475 882.745 356.475C868.262 356.475 855.245 353.267 843.695 346.85C832.329 340.25 823.345 331.083 816.745 319.35C810.329 307.433 807.12 293.683 807.12 278.1C807.12 262.517 810.237 248.858 816.47 237.125C822.887 225.208 831.779 216.042 843.145 209.625C854.695 203.208 867.895 200 882.745 200C897.045 200 909.787 203.117 920.97 209.35C932.154 215.583 940.862 224.383 947.095 235.75C953.329 246.933 956.445 259.858 956.445 274.525ZM923.72 264.625C923.537 253.075 919.412 243.817 911.345 236.85C903.279 229.883 893.287 226.4 881.37 226.4C870.554 226.4 861.295 229.883 853.595 236.85C845.895 243.633 841.312 252.892 839.845 264.625H923.72ZM998.022 224.475C1002.61 216.775 1008.66 210.817 1016.17 206.6C1023.87 202.2 1032.95 200 1043.4 200V232.45H1035.42C1023.14 232.45 1013.79 235.567 1007.37 241.8C1001.14 248.033 998.022 258.85 998.022 274.25V354H966.672V202.475H998.022V224.475ZM1117.31 356.475C1103.01 356.475 1090.09 353.267 1078.54 346.85C1066.99 340.25 1057.91 331.083 1051.31 319.35C1044.71 307.433 1041.41 293.683 1041.41 278.1C1041.41 262.7 1044.81 249.042 1051.59 237.125C1058.37 225.208 1067.63 216.042 1079.36 209.625C1091.1 203.208 1104.21 200 1118.69 200C1133.17 200 1146.28 203.208 1158.01 209.625C1169.75 216.042 1179.01 225.208 1185.79 237.125C1192.57 249.042 1195.96 262.7 1195.96 278.1C1195.96 293.5 1192.48 307.158 1185.51 319.075C1178.55 330.992 1169.01 340.25 1156.91 346.85C1145 353.267 1131.8 356.475 1117.31 356.475ZM1117.31 329.25C1125.38 329.25 1132.9 327.325 1139.86 323.475C1147.01 319.625 1152.79 313.85 1157.19 306.15C1161.59 298.45 1163.79 289.1 1163.79 278.1C1163.79 267.1 1161.68 257.842 1157.46 250.325C1153.25 242.625 1147.66 236.85 1140.69 233C1133.72 229.15 1126.21 227.225 1118.14 227.225C1110.07 227.225 1102.56 229.15 1095.59 233C1088.81 236.85 1083.4 242.625 1079.36 250.325C1075.33 257.842 1073.31 267.1 1073.31 278.1C1073.31 294.417 1077.44 307.067 1085.69 316.05C1094.12 324.85 1104.66 329.25 1117.31 329.25ZM1282.78 200C1294.7 200 1305.33 202.475 1314.68 207.425C1324.21 212.375 1331.64 219.708 1336.96 229.425C1342.27 239.142 1344.93 250.875 1344.93 264.625V354H1313.86V269.3C1313.86 255.733 1310.46 245.375 1303.68 238.225C1296.9 230.892 1287.64 227.225 1275.91 227.225C1264.17 227.225 1254.82 230.892 1247.86 238.225C1241.07 245.375 1237.68 255.733 1237.68 269.3V354H1206.33V202.475H1237.68V219.8C1242.81 213.567 1249.32 208.708 1257.21 205.225C1265.27 201.742 1273.8 200 1282.78 200ZM1530.33 314.95H1450.3L1436.55 354H1403.83L1472.3 162.6H1508.6L1577.08 354H1544.08L1530.33 314.95ZM1521.53 289.375L1490.45 200.55L1459.1 289.375H1521.53ZM1617.58 162.875V354H1586.23V162.875H1617.58Z" fill="#F1F1F1"/>
</svg>
